<?xml version="1.0" standalone="no"?>
<!DOCTYPE svg PUBLIC "-//W3C//DTD SVG 20010904//EN"
 "http://www.w3.org/TR/2001/REC-SVG-20010904/DTD/svg10.dtd">
<svg version="1.0" xmlns="http://www.w3.org/2000/svg"
 width="300.000000pt" height="299.000000pt" viewBox="0 0 300.000000 299.000000"
 preserveAspectRatio="xMidYMid meet">
<metadata>
Created by potrace 1.10, written by Peter Selinger 2001-2011
</metadata>
<g transform="translate(0.000000,299.000000) scale(0.100000,-0.100000)"
fill="#000000" stroke="none">
<path d="M1480 2303 c-50 -8 -210 -46 -210 -49 0 -7 55 -1 110 12 91 21 128
23 193 9 81 -17 123 -39 144 -76 17 -29 33 -38 33 -19 0 6 -5 10 -11 10 -5 0
-8 4 -4 9 9 15 -66 71 -110 82 -22 6 -54 15 -71 20 -17 5 -35 8 -40 8 -5 -1
-20 -4 -34 -6z"/>
<path d="M1186 2187 c-35 -37 -71 -67 -80 -67 -9 0 -16 -4 -16 -10 0 -15 43
-12 68 6 12 8 22 21 22 28 0 8 19 32 41 55 23 23 39 44 35 48 -3 3 -35 -24
-70 -60z"/>
<path d="M1500 2158 c0 -10 -6 -18 -12 -18 -9 0 -8 -4 2 -10 8 -5 11 -10 5
-10 -5 0 -3 -5 5 -10 13 -8 12 -10 -4 -10 -10 0 -38 -18 -62 -40 -24 -22 -52
-40 -61 -40 -10 -1 -38 -12 -63 -25 -33 -18 -39 -24 -24 -25 22 0 66 16 140
51 22 10 49 19 60 19 10 0 26 5 34 10 11 7 17 5 22 -8 5 -14 7 -13 7 6 1 12 7
22 14 22 8 0 8 3 1 8 -6 4 -22 27 -37 52 -15 25 -27 37 -27 28z"/>
<path d="M1595 2138 c42 -37 46 -40 51 -35 2 2 -2 10 -11 17 -8 7 -15 19 -15
26 0 8 -4 14 -10 14 -5 0 -10 -5 -10 -11 0 -7 -5 -8 -13 -3 -7 5 -4 1 8 -8z"/>
<path d="M1285 2140 c-3 -5 -16 -10 -27 -10 -19 0 -19 -2 6 -21 17 -14 33 -18
44 -13 14 6 11 8 -13 14 -28 6 -29 6 -7 14 12 4 22 12 22 17 0 12 -17 12 -25
-1z"/>
<path d="M1395 2137 c23 -18 14 -33 -25 -40 -16 -4 -30 -11 -30 -17 0 -6 9 -6
25 0 14 5 25 6 25 2 1 -4 9 2 18 14 10 11 24 23 32 27 10 3 7 6 -7 6 -13 1
-23 6 -23 11 0 6 -8 10 -17 10 -15 0 -15 -1 2 -13z"/>
<path d="M1216 2061 c-16 -9 -27 -18 -26 -21 2 -3 -2 -15 -9 -27 -10 -19 -9
-23 4 -23 8 0 14 6 13 13 -2 6 5 11 15 11 20 -2 23 12 5 19 -7 2 -10 8 -6 12
10 11 28 -4 28 -25 0 -10 -7 -21 -16 -24 -9 -4 -14 -9 -10 -13 3 -3 -8 -14
-24 -24 -17 -11 -30 -24 -30 -30 0 -8 6 -7 18 2 16 13 16 13 0 -6 -13 -15 -14
-24 -6 -39 9 -15 7 -22 -8 -33 -15 -11 -15 -13 -2 -13 9 0 16 -6 15 -12 -3
-80 4 -118 24 -129 14 -7 25 -7 31 -1 7 7 3 12 -11 17 -12 4 -22 16 -22 28 -6
76 -4 179 3 183 4 3 5 -1 2 -9 -3 -8 0 -18 7 -23 9 -5 10 -2 6 9 -3 9 5 37 19
62 23 45 32 99 17 108 -5 2 -21 -3 -37 -12z"/>
<path d="M1723 2043 c-7 -3 -13 -11 -13 -18 0 -7 -10 -16 -22 -19 l-23 -7 22
-9 c12 -5 26 -17 32 -27 10 -17 12 -17 21 0 6 9 19 17 28 17 16 -1 16 -2 0
-13 -15 -12 -14 -15 12 -32 16 -11 26 -23 24 -27 -3 -4 0 -8 5 -8 6 0 11 -5
11 -11 0 -6 -8 -8 -17 -5 -10 3 -25 1 -33 -4 -13 -9 -13 -11 0 -20 8 -5 28
-10 44 -10 25 0 27 3 21 23 -5 12 -7 52 -7 90 l2 67 -38 0 c-21 0 -42 4 -47 9
-6 5 -16 6 -22 4z"/>
<path d="M1474 2003 c-12 -2 -24 -12 -27 -22 -4 -16 -1 -17 24 -7 16 6 29 16
29 23 0 7 -1 12 -2 12 -2 -1 -13 -4 -24 -6z"/>
<path d="M1547 1980 c-10 -17 -31 -37 -48 -45 -37 -20 -37 -26 1 -21 33 4 45
11 45 29 0 6 17 20 37 31 21 10 35 23 31 29 -3 5 -10 3 -15 -4 -7 -11 -11 -11
-15 -1 -8 19 -17 14 -36 -18z"/>
<path d="M1119 1983 c-1 -5 -3 -18 -4 -31 -1 -13 -12 -33 -24 -46 -23 -24 -29
-52 -8 -40 7 5 6 1 -3 -10 -20 -25 -21 -45 -5 -70 12 -18 11 -25 -1 -46 l-15
-25 4 33 c2 22 -1 32 -10 32 -22 0 -20 -64 3 -87 8 -8 14 -23 14 -33 0 -10 5
-22 10 -25 6 -4 9 -1 8 7 -2 8 4 12 15 10 21 -4 21 -3 2 35 -10 19 -13 47 -11
77 4 42 3 47 -12 42 -16 -6 -16 -5 0 7 14 11 58 140 58 169 0 10 -20 10 -21 1z"/>
<path d="M1701 1846 c-7 -8 -26 -18 -42 -21 -16 -4 -29 -13 -29 -21 0 -18 25
-18 42 -1 10 12 17 10 38 -10 43 -40 50 -27 11 22 -8 11 -9 15 -2 8 11 -9 17
-8 29 4 13 13 13 16 1 24 -20 13 -35 11 -48 -5z"/>
<path d="M1439 1829 c-19 -19 -27 -69 -11 -69 5 0 17 -8 28 -18 21 -20 84 -51
123 -62 17 -4 26 -14 26 -26 0 -19 19 -21 92 -9 14 2 22 -1 20 -8 -3 -19 64
-9 79 11 21 27 17 30 -24 25 -28 -4 -43 0 -55 12 -9 9 -17 12 -17 6 0 -6 -4
-11 -10 -11 -5 0 -10 7 -10 16 0 8 -4 12 -10 9 -13 -8 -50 13 -50 28 0 7 -14
23 -31 36 -26 19 -28 25 -17 39 11 13 11 15 -4 9 -10 -3 -18 -3 -18 2 0 4 -7
8 -15 8 -8 0 -15 -7 -15 -16 1 -19 30 -61 30 -43 0 19 18 14 25 -7 4 -12 12
-18 21 -14 9 3 14 -1 14 -12 0 -17 -1 -17 -55 -1 -27 8 -51 21 -57 30 -4 6
-10 8 -13 4 -3 -3 1 -13 10 -22 14 -13 14 -16 2 -16 -25 0 -29 32 -7 62 26 36
25 45 -6 51 -18 3 -33 -2 -45 -14z"/>
<path d="M1846 1842 c-4 -7 -16 -12 -26 -12 -13 0 -22 -9 -26 -27 -3 -16 -8
-34 -10 -41 -3 -9 4 -12 19 -10 12 2 21 9 20 15 -2 12 14 12 32 1 7 -4 10 6 7
30 -5 51 -7 58 -16 44z"/>
<path d="M1698 1772 c25 -34 77 -72 70 -50 -2 7 -14 17 -26 23 -12 5 -22 14
-22 20 0 6 -10 16 -21 24 l-22 13 21 -30z"/>
<path d="M1149 1634 c-2 -16 -2 -44 1 -63 l5 -34 18 37 c19 42 23 81 6 70 -6
-3 -15 -1 -19 6 -5 8 -9 2 -11 -16z"/>
<path d="M1756 1613 c-4 -4 -23 -8 -43 -8 -20 -1 -39 -7 -41 -13 -6 -18 83
-16 97 2 12 14 0 31 -13 19z"/>
<path d="M1832 1525 c-1 -19 3 -25 18 -25 23 0 24 4 10 31 -15 26 -25 24 -28
-6z"/>
<path d="M1620 1454 c0 -5 4 -16 9 -23 12 -18 -4 -52 -22 -48 -8 1 -11 -11
-10 -38 2 -31 1 -35 -6 -20 -8 16 -10 17 -10 3 -1 -9 4 -20 9 -23 6 -4 8 -16
5 -28 -5 -20 -5 -20 5 -4 6 10 13 30 16 45 8 53 14 71 28 84 11 12 11 18 -5
37 -11 13 -19 19 -19 15z"/>
<path d="M1872 1418 c3 -7 14 -14 26 -16 16 -3 20 1 16 12 -7 19 -48 22 -42 4z"/>
<path d="M1670 1389 c0 -13 31 -39 40 -34 15 9 -1 41 -21 41 -10 0 -19 -3 -19
-7z"/>
<path d="M1470 1352 c-8 -15 -16 -30 -18 -35 -2 -4 2 -6 10 -5 7 2 16 16 20
33 9 39 5 41 -12 7z"/>
<path d="M1913 1324 c-8 -8 -9 -15 -3 -19 6 -3 10 -17 10 -31 0 -27 15 -32 24
-9 3 8 12 15 21 15 8 0 15 7 15 15 0 9 -6 15 -12 14 -25 -3 -39 1 -33 10 9 16
-9 20 -22 5z"/>
<path d="M1041 1274 c-6 -15 -9 -35 -5 -46 3 -10 1 -24 -4 -31 -5 -7 -6 -21
-2 -31 11 -31 21 -4 25 69 2 36 2 65 1 65 -2 0 -8 -12 -15 -26z"/>
<path d="M1928 1224 c-11 -21 -2 -59 14 -62 13 -2 16 2 13 17 -5 29 -21 55
-27 45z"/>
<path d="M1570 1147 c0 -8 9 -17 20 -20 22 -6 42 -49 34 -72 -4 -8 -1 -15 6
-15 17 0 3 72 -15 83 -8 4 -21 14 -30 23 -13 13 -15 13 -15 1z"/>
<path d="M2140 1116 c0 -8 -9 -20 -19 -26 -16 -8 -23 -6 -37 12 -11 16 -15 17
-11 6 8 -22 3 -22 -28 -2 -14 9 -25 12 -25 6 0 -6 5 -14 11 -17 6 -4 8 -14 5
-22 -5 -12 -1 -14 19 -11 14 3 28 1 31 -4 3 -4 10 -6 15 -3 5 3 14 1 21 -4 7
-6 30 -25 51 -42 32 -27 40 -30 48 -18 5 9 9 10 9 2 0 -6 -4 -14 -9 -17 -11
-7 -9 -20 9 -61 8 -16 15 -37 16 -45 1 -8 4 -37 8 -64 7 -60 16 -72 16 -23 0
28 3 35 15 31 9 -4 15 0 15 9 0 8 6 17 13 20 9 3 9 8 -2 18 -10 11 -15 11 -18
1 -3 -8 -11 -5 -23 10 -14 17 -16 26 -7 36 8 11 7 16 -6 23 -11 7 -17 22 -16
47 0 20 -4 53 -10 72 l-9 35 -1 -37 c-1 -34 -3 -37 -23 -29 -12 4 -25 14 -28
22 -4 8 -12 24 -18 35 -7 15 -7 25 0 32 6 6 6 12 -1 16 -6 4 -11 0 -11 -8z"/>
<path d="M1923 1104 c-7 -19 1 -38 22 -50 26 -14 37 -7 30 17 -4 10 -2 19 3
19 6 0 12 7 16 15 4 12 -2 14 -31 12 -19 -1 -37 -7 -40 -13z"/>
<path d="M877 1079 c18 -22 19 -59 4 -126 -13 -54 -17 -61 -38 -59 -12 2 -32
11 -43 21 -17 15 -20 16 -20 3 0 -20 99 -60 101 -41 1 17 8 50 20 99 13 56 4
104 -22 113 -11 3 -12 1 -2 -10z"/>
<path d="M2393 1067 c-9 -14 1 -17 75 -22 72 -5 96 5 73 28 -8 8 -17 8 -29 1
-9 -5 -39 -7 -65 -4 -27 3 -51 2 -54 -3z"/>
<path d="M1320 1020 c18 -34 47 -40 35 -7 -4 8 -15 17 -26 20 -15 4 -17 2 -9
-13z"/>
<path d="M1165 1020 c-11 -4 -23 -6 -27 -3 -5 2 -8 -1 -8 -6 0 -14 47 -14 55
-1 3 6 17 8 31 6 13 -3 24 -1 24 3 0 10 -49 11 -75 1z"/>
<path d="M1773 1004 c-7 -3 -9 -12 -6 -20 3 -8 -8 -28 -25 -45 -27 -28 -49
-75 -39 -85 2 -2 14 16 26 41 14 28 27 43 34 39 7 -4 9 -4 5 1 -4 4 -3 14 2
21 9 10 23 56 17 53 -1 0 -7 -3 -14 -5z"/>
<path d="M2624 999 c-5 -8 -16 -26 -23 -40 -20 -40 -98 -101 -120 -94 -13 4
-20 -1 -24 -17 -4 -12 -2 -27 4 -33 7 -7 8 -5 4 5 -4 11 1 16 17 17 12 1 26 9
30 18 11 19 66 48 78 40 5 -3 12 0 16 6 4 8 3 9 -4 5 -19 -12 -14 9 13 49 24
34 32 74 9 44z"/>
<path d="M110 985 c-6 -8 -9 -19 -5 -26 6 -8 10 -7 16 2 7 12 12 12 30 1 32
-20 32 -8 0 16 -25 18 -31 19 -41 7z"/>
<path d="M440 969 c0 -12 8 -28 18 -35 22 -18 32 -17 32 1 0 9 -6 12 -15 9
-10 -4 -15 0 -15 14 0 12 -4 24 -10 27 -6 3 -10 -4 -10 -16z"/>
<path d="M2410 969 c0 -12 -7 -15 -25 -11 -16 3 -25 0 -25 -9 0 -7 3 -9 6 -6
4 3 14 2 24 -3 12 -6 24 -4 41 7 23 17 46 24 87 25 12 0 22 4 22 10 0 5 -28 8
-65 6 -52 -2 -65 -6 -65 -19z"/>
<path d="M593 950 c-33 -13 -28 -18 17 -17 31 1 37 3 28 14 -12 15 -15 15 -45
3z"/>
<path d="M2767 946 c-4 -9 2 -21 16 -31 27 -19 37 -19 37 0 0 8 -7 15 -15 15
-7 0 -18 7 -23 16 -8 15 -10 15 -15 0z"/>
<path d="M1399 943 c-1 -4 -1 -16 0 -25 1 -10 -4 -18 -13 -18 -19 0 -20 -8 -1
-40 l14 -25 1 27 c0 15 4 38 10 52 6 16 6 27 0 31 -6 4 -11 3 -11 -2z"/>
<path d="M2650 930 c0 -5 16 -12 36 -16 26 -5 34 -10 29 -22 -4 -12 -3 -13 10
-2 12 10 18 10 32 -1 14 -12 16 -12 11 1 -2 8 -27 23 -54 32 -56 21 -64 22
-64 8z"/>
<path d="M2852 918 c-7 -7 -12 -16 -12 -22 0 -5 3 -6 7 -3 3 4 12 2 20 -4 10
-9 13 -7 13 9 0 26 -13 35 -28 20z"/>
<path d="M636 859 c17 -66 25 -74 18 -18 -3 24 -11 50 -18 57 -11 11 -11 4 0
-39z"/>
<path d="M1 884 c-1 -12 6 -35 14 -50 12 -23 15 -25 14 -9 0 11 -6 34 -14 50
-11 25 -14 27 -14 9z"/>
<path d="M571 866 c-23 -36 -28 -61 -8 -35 7 8 20 18 30 22 9 3 17 11 17 17 0
6 -5 8 -12 4 -8 -5 -9 -2 -5 9 10 27 0 20 -22 -17z"/>
<path d="M1640 863 c0 -19 -4 -32 -9 -29 -5 3 -11 -7 -13 -24 -2 -16 -1 -27 4
-24 4 3 8 1 8 -5 0 -5 -6 -12 -12 -14 -10 -4 -10 -6 0 -6 7 -1 10 -5 7 -11 -3
-6 1 -7 9 -4 15 6 18 18 30 110 5 32 2 41 -9 41 -10 0 -15 -11 -15 -34z"/>
<path d="M1958 860 c3 -27 11 -45 26 -55 14 -10 17 -18 10 -23 -11 -7 -28 -62
-19 -62 2 0 14 19 26 43 12 23 27 45 33 49 6 5 -4 5 -23 2 -31 -7 -33 -6 -26
16 7 21 -10 70 -24 70 -4 0 -5 -18 -3 -40z"/>
<path d="M676 870 c13 -48 16 -138 4 -159 -7 -13 -7 -21 -1 -21 7 0 7 -8 1
-24 -11 -29 11 -44 30 -21 7 8 16 13 20 10 4 -3 10 4 13 15 7 27 -3 25 -29 -5
l-21 -25 1 30 c1 17 3 30 6 30 16 0 9 102 -10 146 -11 27 -18 38 -14 24z"/>
<path d="M2368 854 c-21 -19 -34 -34 -30 -34 12 0 78 57 72 63 -3 3 -22 -10
-42 -29z"/>
<path d="M2598 858 c-23 -28 -18 -31 20 -12 18 8 36 13 42 9 5 -3 10 -2 10 3
0 10 -24 22 -43 22 -7 0 -20 -10 -29 -22z"/>
<path d="M153 815 c2 -66 18 -88 55 -78 18 4 20 8 11 25 -8 14 -8 23 -1 27 19
12 2 61 -21 61 -7 0 -4 -5 5 -11 20 -11 14 -33 -15 -64 -16 -16 -19 -17 -14
-3 3 9 0 36 -8 60 l-14 43 2 -60z"/>
<path d="M733 853 c-3 -10 -8 -21 -9 -24 -5 -10 50 3 64 14 11 9 11 12 -5 18
-30 12 -43 10 -50 -8z"/>
<path d="M821 846 c-9 -11 -9 -15 0 -18 9 -3 9 -9 0 -26 -14 -27 -3 -53 12
-27 7 13 11 14 17 5 5 -8 9 -7 13 5 5 10 3 14 -4 9 -8 -5 -10 5 -7 30 4 38
-10 48 -31 22z"/>
<path d="M2675 834 c-15 -16 -31 -29 -35 -29 -17 0 -20 -13 -5 -18 8 -4 15 -1
15 6 0 8 4 7 11 -3 9 -13 10 -12 5 2 -3 11 4 24 22 37 15 11 24 22 20 26 -4 4
-19 -6 -33 -21z"/>
<path d="M2770 841 c0 -12 -4 -21 -9 -21 -15 0 -9 -39 7 -45 8 -3 12 0 9 7 -2
7 0 25 4 40 4 16 3 30 -2 33 -5 4 -9 -3 -9 -14z"/>
<path d="M64 820 c1 -24 5 -30 24 -30 22 0 30 14 13 24 -5 4 -12 0 -14 -6 -3
-7 -6 -3 -6 9 -1 12 -5 24 -10 27 -4 3 -8 -8 -7 -24z"/>
<path d="M2389 823 c-5 -14 -8 -32 -5 -40 6 -15 32 -17 41 -3 3 6 -1 10 -9 10
-9 0 -16 9 -16 21 0 11 4 18 9 15 5 -3 11 1 15 9 3 9 0 15 -10 15 -8 0 -19
-12 -25 -27z"/>
<path d="M2862 823 c1 -40 20 -48 45 -20 16 19 16 20 0 8 -20 -16 -23 -14 -36
19 -9 24 -9 24 -9 -7z"/>
<path d="M2545 818 c-8 -32 0 -48 23 -47 11 0 12 2 4 6 -6 2 -10 8 -7 13 3 4
1 19 -4 32 l-9 23 -7 -27z"/>
<path d="M1370 807 c0 -12 4 -37 9 -54 6 -20 6 -35 0 -39 -5 -3 -6 -11 -2 -17
4 -7 8 -25 8 -42 0 -23 4 -29 18 -27 10 2 21 -6 27 -20 7 -20 9 -17 9 19 1 39
-18 71 -27 45 -2 -7 -8 -12 -13 -12 -6 0 -7 6 -3 12 12 19 13 48 1 106 -10 52
-27 71 -27 29z"/>
<path d="M2821 801 c-14 -14 -20 -26 -13 -29 6 -2 9 -11 6 -20 -4 -12 -2 -11
7 3 7 11 17 23 23 27 6 4 7 8 2 8 -5 0 -3 6 3 14 21 25 -3 23 -28 -3z"/>
<path d="M612 800 c-7 -11 -21 -20 -33 -20 -26 0 -22 -33 5 -38 12 -3 16 0 11
8 -5 8 1 19 15 30 12 9 21 22 19 29 -2 6 -9 3 -17 -9z"/>
<path d="M249 779 c-3 -49 3 -114 11 -123 5 -5 2 -19 -7 -32 -9 -15 -11 -24
-4 -24 6 0 11 7 11 15 0 9 7 18 15 21 12 5 13 10 4 20 -6 7 -7 19 -3 25 4 7 3
9 -3 6 -6 -4 -10 10 -11 34 -1 27 2 38 9 33 7 -4 7 2 -1 17 -18 34 -20 35 -21
8z"/>
<path d="M380 773 c0 -25 -5 -32 -22 -35 -18 -2 -23 -10 -23 -34 -1 -18 -7
-39 -15 -49 -8 -9 -15 -24 -16 -32 -1 -8 -10 -20 -20 -27 -13 -10 -14 -15 -4
-21 9 -5 11 -4 6 3 -4 7 -2 12 4 12 5 0 20 20 32 44 13 28 26 42 35 39 7 -3
13 0 13 6 0 9 5 9 21 0 17 -9 20 -8 17 3 -3 7 -16 12 -29 12 -22 -1 -38 11
-39 29 0 4 3 6 8 6 37 -6 61 31 41 63 -6 8 -9 2 -9 -19z"/>
<path d="M17 776 c-4 -9 -4 -23 -1 -31 7 -17 34 -21 34 -5 0 6 -5 10 -11 10
-5 0 -8 4 -5 8 2 4 1 14 -3 21 -6 10 -10 9 -14 -3z"/>
<path d="M2460 773 c0 -12 19 -33 50 -58 22 -18 23 -18 10 -1 -8 10 -19 27
-25 39 -10 21 -35 35 -35 20z"/>
<path d="M2287 763 c-13 -12 -7 -22 10 -16 10 4 14 2 9 -5 -3 -6 -2 -13 4 -17
5 -3 10 -2 10 3 0 5 10 14 23 21 l22 12 -22 -5 c-13 -2 -26 0 -29 5 -6 11 -18
12 -27 2z"/>
<path d="M776 737 c3 -8 1 -25 -5 -39 -8 -23 -7 -25 14 -21 16 4 21 10 18 24
-3 10 0 19 6 19 6 0 11 -7 11 -15 0 -8 6 -12 14 -9 8 3 17 0 21 -6 6 -9 10 -9
16 1 17 28 10 42 -18 35 -16 -5 -29 -3 -34 5 -10 18 -50 22 -43 6z"/>
<path d="M978 706 c27 -29 41 -53 38 -62 -4 -11 -1 -14 13 -9 14 4 21 0 26
-14 3 -12 3 -26 0 -31 -4 -6 -11 -25 -16 -43 l-9 -32 19 25 c11 13 17 28 15
32 -3 4 0 17 6 28 7 13 7 20 0 20 -5 0 -10 6 -10 13 0 6 -15 28 -33 47 -17 19
-32 38 -32 42 0 4 -4 8 -10 9 -5 1 -19 6 -30 12 -11 5 -1 -11 23 -37z"/>
<path d="M1590 740 c0 -9 7 -26 16 -38 15 -22 15 -24 -2 -38 -18 -14 -18 -14
3 -5 12 6 24 7 27 2 10 -15 46 -20 46 -6 0 8 -7 11 -18 8 -13 -3 -25 8 -45 44
-14 26 -27 41 -27 33z"/>
<path d="M2834 741 c-8 -9 8 -20 21 -14 14 5 20 -7 16 -30 -1 -5 3 -6 9 -2 5
3 10 -1 10 -10 0 -9 -4 -13 -10 -10 -5 3 -10 1 -10 -5 0 -6 8 -10 18 -8 18 4
18 38 1 49 -5 3 -7 12 -4 20 4 10 -2 14 -21 14 -14 0 -27 -2 -30 -4z"/>
<path d="M615 730 c4 -7 -2 -9 -19 -4 -30 7 -33 0 -10 -24 15 -15 18 -14 30 3
17 23 18 35 3 35 -5 0 -7 -5 -4 -10z"/>
<path d="M2257 720 c-7 -28 -9 -25 21 -34 16 -6 22 -3 22 8 0 9 -5 16 -11 16
-5 0 -7 5 -3 12 4 6 3 8 -4 4 -5 -3 -12 -1 -14 6 -3 7 -7 2 -11 -12z"/>
<path d="M2542 710 c1 -18 7 -34 14 -37 8 -3 11 -9 8 -14 -3 -5 0 -9 5 -9 16
0 13 16 -4 30 -11 9 -12 16 -5 25 7 9 6 16 -4 24 -12 10 -15 7 -14 -19z"/>
<path d="M205 674 c-3 -26 -9 -53 -13 -62 -3 -9 -1 -13 5 -9 12 7 29 105 20
113 -2 3 -8 -16 -12 -42z"/>
<path d="M2745 711 c-6 -11 31 -50 48 -51 12 0 8 10 -17 36 -16 18 -26 22 -31
15z"/>
<path d="M2797 707 c3 -4 8 -6 11 -3 14 14 42 -29 42 -65 0 -21 5 -41 11 -44
13 -9 27 4 14 13 -6 4 -11 19 -12 34 -1 33 -33 77 -55 75 -9 -1 -14 -5 -11
-10z"/>
<path d="M1536 685 c2 -11 4 -25 4 -32 0 -7 7 -10 15 -7 9 4 15 18 14 38 -1
17 -3 23 -6 14 -5 -21 -20 -24 -26 -5 -2 6 -3 3 -1 -8z"/>
<path d="M2650 700 c0 -6 -4 -9 -9 -6 -5 3 -9 -9 -8 -28 1 -23 5 -32 14 -29
16 6 17 19 3 28 -6 4 -7 11 -4 17 4 5 15 -3 26 -19 15 -22 18 -24 16 -8 -2 15
2 19 18 18 12 -1 21 4 21 12 0 10 -6 11 -23 4 -17 -6 -28 -4 -39 7 -9 9 -15
11 -15 4z"/>
<path d="M545 687 c-4 -10 -3 -23 4 -30 16 -16 26 0 14 25 -10 21 -11 22 -18
5z"/>
<path d="M2941 644 c-18 -29 -37 -52 -41 -49 -5 3 -6 -4 -3 -15 3 -11 0 -20
-6 -20 -14 0 -3 -27 15 -34 11 -4 12 -2 4 14 -7 14 -6 22 5 34 8 8 15 21 15
29 0 9 3 17 8 19 9 4 45 68 40 73 -1 2 -18 -21 -37 -51z"/>
<path d="M1511 677 c-1 -10 -5 -15 -11 -12 -5 3 -10 -1 -10 -10 0 -9 -4 -14
-9 -10 -18 10 -30 -29 -16 -49 18 -24 35 -12 35 27 0 23 3 28 9 17 6 -8 7 -18
5 -22 -3 -4 -1 -8 5 -8 19 0 21 19 7 52 -9 21 -15 26 -15 15z"/>
<path d="M2520 682 c0 -6 -9 -14 -20 -17 -21 -7 -21 -7 26 -47 19 -16 20 -16
20 2 0 10 -2 17 -4 15 -2 -2 -10 2 -17 8 -9 9 -10 16 -3 25 6 7 8 15 4 19 -3
3 -6 1 -6 -5z"/>
<path d="M868 655 c-13 -30 -28 -33 -23 -5 2 11 0 20 -6 20 -5 0 -7 -11 -5
-24 2 -14 0 -26 -7 -29 -13 -4 -1 -27 15 -27 5 0 8 7 4 15 -9 23 22 18 34 -6
9 -16 14 -18 26 -8 18 15 18 29 -1 29 -8 0 -15 4 -15 9 0 5 -3 17 -7 26 -5 14
-2 16 18 10 18 -5 21 -4 9 4 -22 16 -29 14 -42 -14z"/>
<path d="M1709 675 c-1 -5 -2 -19 -3 -30 -1 -11 -6 -19 -13 -18 -7 2 -10 -7
-7 -25 8 -44 20 -45 26 -2 2 14 7 31 11 37 5 7 3 21 -2 30 -6 10 -11 14 -12 8z"/>
<path d="M614 640 c3 -19 5 -37 5 -40 1 -8 41 -7 41 1 0 4 -7 9 -15 13 -8 3
-15 13 -15 22 0 14 2 15 17 3 14 -12 16 -12 11 1 -2 8 -11 15 -19 15 -8 0 -17
5 -21 10 -5 6 -6 -6 -4 -25z"/>
<path d="M2080 666 c0 -2 22 -25 49 -52 26 -27 50 -56 53 -64 4 -12 9 -12 29
-3 l24 11 -27 7 c-16 4 -28 10 -28 14 -1 22 -100 109 -100 87z"/>
<path d="M377 643 c4 -10 9 -11 19 -2 10 8 15 5 20 -15 3 -14 10 -23 15 -20
14 8 -21 53 -41 51 -10 -1 -16 -7 -13 -14z"/>
<path d="M934 644 c3 -9 6 -18 6 -20 0 -3 5 -2 10 1 6 3 10 -2 10 -12 0 -10 5
-25 10 -33 7 -11 9 -8 8 15 -1 17 -10 38 -19 48 -22 21 -33 22 -25 1z"/>
<path d="M2725 643 c2 -10 4 -29 5 -43 1 -14 4 -19 7 -13 3 9 10 10 22 4 14
-8 17 -5 17 15 0 16 -3 21 -10 14 -16 -16 -26 -12 -23 11 1 12 -3 24 -10 26
-7 2 -10 -3 -8 -14z"/>
<path d="M121 637 c-9 -11 -10 -17 -2 -17 6 0 11 -7 11 -15 0 -13 4 -12 22 5
12 11 18 23 14 27 -4 4 -11 1 -16 -6 -6 -11 -9 -10 -11 4 -4 17 -5 17 -18 2z"/>
<path d="M762 630 c-7 -11 -19 -20 -28 -20 -8 0 -12 -5 -9 -10 5 -8 11 -8 19
-1 16 14 26 4 19 -17 -4 -14 -3 -15 5 -2 8 10 8 18 0 27 -8 10 -6 13 6 13 10
0 14 4 11 10 -3 6 1 7 9 4 9 -3 16 -1 16 5 0 19 -34 12 -48 -9z"/>
<path d="M1604 636 c-4 -9 -2 -27 4 -39 9 -19 11 -20 11 -3 1 15 4 16 15 7 11
-10 16 -8 21 9 4 12 4 24 1 27 -3 4 -6 0 -6 -7 0 -9 -6 -8 -20 5 -18 16 -20
17 -26 1z"/>
<path d="M2210 624 c-13 -34 -13 -37 6 -30 14 5 15 4 4 -9 -16 -19 -9 -19 36
0 20 8 40 13 44 10 4 -3 13 2 20 10 18 21 -13 20 -46 -2 -22 -14 -27 -14 -35
-2 -5 8 -6 22 -3 32 9 27 -15 20 -26 -9z"/>
<path d="M2596 641 c-5 -7 2 -21 19 -37 14 -13 24 -27 22 -32 -3 -4 -1 -16 4
-27 7 -19 8 -19 10 3 1 12 2 28 3 35 1 6 9 11 19 11 20 -2 21 5 6 26 -8 11
-12 12 -16 2 -2 -6 -9 -10 -14 -7 -5 4 -6 -2 -2 -12 5 -16 3 -15 -14 2 -11 12
-22 27 -25 35 -3 11 -6 11 -12 1z"/>
<path d="M1366 610 c10 -52 20 -68 26 -37 3 15 -2 34 -14 48 l-18 24 6 -35z"/>
<path d="M1900 614 c-6 -14 -10 -29 -10 -34 0 -5 -7 -16 -16 -24 -8 -9 -11
-16 -6 -16 17 0 41 35 47 68 6 38 -2 42 -15 6z"/>
<path d="M2367 621 c-3 -13 -10 -20 -16 -17 -5 4 -12 2 -16 -4 -6 -9 7 -14 28
-11 4 0 7 -5 7 -13 0 -17 27 -29 35 -16 4 6 -1 10 -11 10 -12 0 -14 4 -7 13 6
6 13 20 17 31 4 13 2 17 -8 13 -8 -3 -16 -1 -19 6 -2 6 -6 1 -10 -12z"/>
<path d="M2470 632 c0 -6 7 -13 16 -16 8 -3 12 -10 9 -16 -3 -5 1 -10 11 -10
12 0 14 -3 6 -12 -7 -10 -4 -18 12 -29 21 -16 22 -16 23 2 1 13 -3 16 -15 12
-14 -6 -15 -4 -4 9 10 13 7 20 -23 42 -19 15 -35 23 -35 18z"/>
<path d="M1553 613 c-4 -10 -11 -21 -17 -25 -6 -4 -1 -6 11 -5 14 1 23 9 26
24 5 27 -11 31 -20 6z"/>
<path d="M2830 614 c0 -24 -23 -48 -34 -37 -4 4 -4 0 -1 -8 8 -22 35 -20 35 3
0 10 5 18 10 18 6 0 9 -3 9 -7 -5 -32 14 -45 25 -17 3 8 2 13 -3 10 -5 -3 -16
9 -25 27 -13 26 -16 28 -16 11z"/>
<path d="M337 611 c2 -2 -3 -11 -10 -19 -8 -10 -8 -13 -1 -9 16 10 25 -18 11
-33 -9 -10 -9 -11 3 -8 18 6 22 43 6 61 -6 7 -10 10 -9 8z"/>
<path d="M2445 599 c-7 -21 11 -43 26 -33 4 2 10 -2 12 -8 4 -8 6 -7 6 3 1 9
-6 20 -15 23 -8 3 -13 10 -9 15 3 5 1 12 -4 15 -5 4 -13 -3 -16 -15z"/>
<path d="M1112 580 c-2 -20 2 -29 10 -28 7 2 14 -8 16 -22 5 -32 42 -58 42
-29 0 5 -4 8 -9 5 -5 -3 -11 12 -15 34 -5 29 -10 38 -21 34 -18 -7 -20 7 -3
24 9 9 9 12 -3 12 -9 0 -16 -11 -17 -30z"/>
<path d="M2018 592 c-31 -19 -36 -32 -13 -32 8 0 15 5 15 10 0 6 7 10 15 10 8
0 15 7 15 15 0 8 -1 15 -2 14 -2 0 -15 -8 -30 -17z"/>
<path d="M2064 598 c-5 -7 -3 -8 6 -3 10 6 12 -1 7 -38 -4 -29 -3 -47 3 -47 6
0 10 8 10 17 0 16 14 10 16 -8 4 -30 6 -32 13 -14 6 14 3 24 -10 33 -25 17
-26 53 -1 46 14 -5 14 -3 -2 10 -24 19 -32 20 -42 4z"/>
<path d="M2271 566 c-8 -10 -9 -16 -1 -21 5 -3 10 2 10 12 0 15 4 14 21 -7
l20 -25 -3 25 c-3 29 -29 38 -47 16z"/>
<path d="M80 560 c0 -6 12 -16 26 -22 22 -10 25 -16 19 -46 -5 -26 -3 -33 7
-30 7 3 15 18 18 34 3 16 11 29 18 29 13 0 16 9 9 28 -4 9 -6 9 -6 -1 -1 -7
-5 -10 -11 -7 -5 3 -10 1 -10 -4 0 -17 -14 -13 -40 9 -26 23 -30 24 -30 10z"/>
<path d="M270 544 c0 -8 5 -12 10 -9 6 3 10 -1 10 -9 0 -9 7 -16 15 -16 20 0
19 13 -3 33 -23 21 -32 21 -32 1z"/>
<path d="M50 545 c0 -3 5 -15 10 -25 13 -23 50 -46 50 -30 0 5 -6 10 -14 10
-8 0 -16 10 -18 22 -3 19 -28 40 -28 23z"/>
<path d="M910 520 c20 -29 32 -38 28 -22 -1 4 3 17 10 30 7 12 9 22 3 22 -5 0
-12 -8 -16 -17 -6 -17 -7 -17 -16 0 -6 9 -15 17 -20 17 -6 0 -1 -13 11 -30z"/>
<path d="M1489 539 c-11 -7 -9 -9 9 -9 12 0 22 -6 22 -12 0 -8 5 -6 11 4 6 11
16 15 27 11 9 -3 14 -3 11 1 -11 12 -64 15 -80 5z"/>
<path d="M1674 542 c-22 -14 -37 -53 -25 -65 8 -8 11 -5 11 12 0 14 4 20 12
15 7 -5 9 -2 5 9 -3 9 -1 18 6 20 7 2 10 7 7 10 -3 3 -10 3 -16 -1z"/>
<path d="M2008 520 c-3 -14 -9 -34 -14 -45 -8 -20 -7 -20 11 -1 13 12 20 15
23 7 3 -9 7 -9 18 -1 16 14 31 6 52 -30 13 -21 21 -25 37 -19 18 7 18 8 1 8
-12 1 -16 6 -12 17 3 8 2 13 -3 10 -4 -3 -18 6 -31 19 -15 16 -31 23 -46 21
-17 -3 -24 1 -26 17 -3 21 -4 21 -10 -3z"/>
<path d="M2228 535 c-7 -7 -1 -21 20 -53 10 -14 45 -5 36 9 -3 5 -10 7 -15 4
-5 -4 -9 4 -10 17 0 22 -1 22 -8 3 -8 -19 -9 -19 -12 3 -2 13 -7 21 -11 17z"/>
<path d="M2466 520 c6 -8 9 -28 8 -44 -3 -27 -2 -28 17 -11 24 23 24 26 -9 50
-15 11 -22 13 -16 5z"/>
<path d="M256 482 c-3 -3 -6 -10 -6 -16 0 -6 4 -4 10 4 8 12 10 12 15 -3 6
-14 9 -14 21 -2 8 7 14 15 14 17 0 6 -49 6 -54 0z"/>
<path d="M473 474 c-3 -8 -12 -13 -20 -9 -11 4 -13 1 -9 -11 3 -8 6 -20 6 -25
0 -19 18 -8 24 15 3 13 11 24 18 23 31 -1 48 4 48 13 0 17 -60 12 -67 -6z"/>
<path d="M1310 454 c0 -8 5 -12 10 -9 6 3 10 0 10 -8 0 -8 9 -17 20 -20 19 -5
19 -4 2 19 -21 29 -42 38 -42 18z"/>
<path d="M2920 452 c0 -27 25 -58 34 -43 5 7 0 18 -10 26 -11 9 -14 14 -6 15
17 0 15 20 -3 20 -8 0 -15 -8 -15 -18z"/>
<path d="M2301 436 c-8 -10 -8 -16 2 -24 17 -15 39 0 31 21 -8 21 -18 22 -33
3z"/>
<path d="M2546 443 c-14 -14 -5 -24 15 -18 18 6 21 4 17 -13 -4 -15 -2 -19 8
-15 8 3 14 8 14 12 -1 20 -42 46 -54 34z"/>
<path d="M692 428 c-15 -15 -16 -48 -2 -48 6 0 10 11 10 24 0 13 6 27 13 29 6
3 7 6 2 6 -6 1 -16 -4 -23 -11z"/>
<path d="M2813 375 c0 -36 4 -65 9 -65 6 0 7 7 4 16 -6 17 9 44 25 44 5 0 6
-7 3 -15 -4 -8 -2 -15 3 -15 19 0 10 36 -10 46 -15 6 -21 17 -20 32 2 12 -1
22 -6 22 -5 0 -8 -29 -8 -65z"/>
<path d="M2374 395 c-6 -23 0 -45 10 -34 10 12 15 59 6 59 -5 0 -12 -11 -16
-25z"/>
<path d="M2435 350 c-4 -6 -3 -14 0 -20 9 -15 35 -12 35 4 0 17 -27 29 -35 16z"/>
<path d="M2601 311 c-18 -12 -7 -28 24 -33 27 -6 33 10 13 30 -14 14 -19 15
-37 3z"/>
<path d="M132 280 c-11 -18 -10 -20 13 -20 23 0 24 2 15 20 -6 11 -12 20 -13
20 -1 0 -8 -9 -15 -20z"/>
<path d="M777 157 c-4 -10 3 -12 24 -9 16 2 29 8 29 13 0 14 -47 10 -53 -4z"/>
<path d="M1005 139 c-4 -5 1 -9 10 -9 9 0 25 -10 36 -22 l18 -23 1 22 c0 15
-9 24 -30 31 -18 7 -32 7 -35 1z"/>
<path d="M852 81 c9 -16 16 -17 37 -10 14 6 35 8 47 5 25 -7 54 2 54 15 0 5
-34 9 -75 9 -71 0 -75 -1 -63 -19z"/>
<path d="M763 82 c-12 -2 -27 -10 -33 -18 -10 -11 -8 -14 13 -14 29 0 77 19
77 31 0 8 -12 8 -57 1z"/>
</g>
</svg>
